<?xml version="1.0" encoding="UTF-8"?>
<svg xmlns="http://www.w3.org/2000/svg" viewBox="0 0 457.53 457.53">
  <defs>
    <style>
      .cls-1 {
        fill: #f2f7fd;
      }

      .cls-2 {
        isolation: isolate;
      }

      .cls-3 {
        fill: #021325;
      }

      .cls-4 {
        mix-blend-mode: hue;
      }
    </style>
  </defs>
  <g class="cls-2">
    <g id="Layer_2" data-name="Layer 2">
      <g id="Layer_1-2" data-name="Layer 1">
        <g class="cls-4">
          <circle class="cls-1" cx="228.77" cy="228.77" r="228.77"/>
          <g>
            <path class="cls-3" d="M212.72,212.71c-8.86,8.86-8.86,23.23,0,32.09,8.86,8.86,23.23,8.86,32.09,0s8.86-23.23,0-32.09c-8.86-8.86-23.23-8.86-32.09,0Z"/>
            <path class="cls-3" d="M349.03,108.49c-47.14-47.14-117.03-57.69-174.35-31.64-16.52,7.51-31.99,18.05-45.58,31.64l-20.63,20.63c-.96.96-1.91,1.93-2.83,2.91-57.88,60.93-56.94,157.25,2.83,217.02,59.25,59.25,154.42,60.7,215.42,4.33,1.52-1.41,3.03-2.85,4.51-4.33l20.63-20.63c13.59-13.59,24.13-29.06,31.64-45.58,26.05-57.32,15.51-127.2-31.64-174.35ZM293.81,318.73l-.03-.03c-37.34,35.37-93.46,39.46-135.15,12.27l36.22-36.22c8.86-8.86,8.86-23.23,0-32.09-8.86-8.86-23.23-8.86-32.09,0l-36.22,36.22c-27.19-41.69-23.1-97.81,12.27-135.15l-.03-.03,21.99-21.99.48-.48c42.81-42.81,112.22-42.81,155.03,0,42.81,42.81,42.81,112.22,0,155.03l-.48.48-21.99,21.99Z"/>
          </g>
        </g>
      </g>
    </g>
  </g>
</svg>